<mxfile host="app.diagrams.net" modified="2022-01-12T09:55:50.505Z" agent="5.0 (Windows NT 10.0; Win64; x64) AppleWebKit/537.36 (KHTML, like Gecko) Chrome/97.0.4692.71 Safari/537.36" etag="EWKM7rqPneq9138GC3vv" version="16.2.4" type="github">
  <diagram id="OM3lx3goNTmFPO1qKr1K" name="Page-1">
    <mxGraphModel dx="1736" dy="780" grid="1" gridSize="10" guides="1" tooltips="1" connect="1" arrows="1" fold="1" page="1" pageScale="1" pageWidth="827" pageHeight="1169" math="0" shadow="0">
      <root>
        <mxCell id="0" />
        <mxCell id="1" parent="0" />
        <mxCell id="ES-EeXoTM_ZExigbFJbH-44" style="edgeStyle=orthogonalEdgeStyle;rounded=0;orthogonalLoop=1;jettySize=auto;html=1;exitX=1;exitY=0.5;exitDx=0;exitDy=0;entryX=0;entryY=0.5;entryDx=0;entryDy=0;fontColor=#000000;" parent="1" source="ES-EeXoTM_ZExigbFJbH-47" target="ES-EeXoTM_ZExigbFJbH-86" edge="1">
          <mxGeometry relative="1" as="geometry" />
        </mxCell>
        <mxCell id="ES-EeXoTM_ZExigbFJbH-45" style="edgeStyle=orthogonalEdgeStyle;rounded=0;orthogonalLoop=1;jettySize=auto;html=1;exitX=1;exitY=0.5;exitDx=0;exitDy=0;entryX=0;entryY=0.5;entryDx=0;entryDy=0;fontColor=#000000;" parent="1" source="ES-EeXoTM_ZExigbFJbH-47" target="ES-EeXoTM_ZExigbFJbH-88" edge="1">
          <mxGeometry relative="1" as="geometry" />
        </mxCell>
        <mxCell id="ES-EeXoTM_ZExigbFJbH-46" style="edgeStyle=orthogonalEdgeStyle;rounded=0;orthogonalLoop=1;jettySize=auto;html=1;exitX=1;exitY=0.5;exitDx=0;exitDy=0;entryX=0;entryY=0.5;entryDx=0;entryDy=0;fontColor=#000000;" parent="1" source="ES-EeXoTM_ZExigbFJbH-47" target="ES-EeXoTM_ZExigbFJbH-90" edge="1">
          <mxGeometry relative="1" as="geometry" />
        </mxCell>
        <mxCell id="ES-EeXoTM_ZExigbFJbH-124" style="edgeStyle=orthogonalEdgeStyle;rounded=0;orthogonalLoop=1;jettySize=auto;html=1;exitX=1;exitY=0.5;exitDx=0;exitDy=0;entryX=0;entryY=0.5;entryDx=0;entryDy=0;" parent="1" source="ES-EeXoTM_ZExigbFJbH-47" target="ES-EeXoTM_ZExigbFJbH-123" edge="1">
          <mxGeometry relative="1" as="geometry" />
        </mxCell>
        <mxCell id="ES-EeXoTM_ZExigbFJbH-127" style="edgeStyle=orthogonalEdgeStyle;rounded=0;orthogonalLoop=1;jettySize=auto;html=1;exitX=1;exitY=0.5;exitDx=0;exitDy=0;entryX=0;entryY=0.5;entryDx=0;entryDy=0;" parent="1" source="ES-EeXoTM_ZExigbFJbH-47" target="ES-EeXoTM_ZExigbFJbH-126" edge="1">
          <mxGeometry relative="1" as="geometry" />
        </mxCell>
        <mxCell id="ES-EeXoTM_ZExigbFJbH-47" value="F103: Se déplacer" style="rounded=0;whiteSpace=wrap;html=1;" parent="1" vertex="1">
          <mxGeometry x="90" y="480" width="120" height="60" as="geometry" />
        </mxCell>
        <mxCell id="ES-EeXoTM_ZExigbFJbH-82" value="&lt;font color=&quot;#000000&quot; style=&quot;background-color: rgb(51 , 153 , 255)&quot;&gt;déplacement du drone&lt;/font&gt;" style="rounded=0;whiteSpace=wrap;html=1;labelBackgroundColor=none;fontColor=#0000FF;fillColor=#FFFFFF;" parent="1" vertex="1">
          <mxGeometry x="530" y="340" width="120" height="60" as="geometry" />
        </mxCell>
        <mxCell id="ES-EeXoTM_ZExigbFJbH-84" style="edgeStyle=orthogonalEdgeStyle;rounded=0;orthogonalLoop=1;jettySize=auto;html=1;exitX=1;exitY=0.5;exitDx=0;exitDy=0;entryX=0;entryY=0.75;entryDx=0;entryDy=0;fontColor=#0000FF;" parent="1" source="ES-EeXoTM_ZExigbFJbH-86" target="ES-EeXoTM_ZExigbFJbH-93" edge="1">
          <mxGeometry relative="1" as="geometry" />
        </mxCell>
        <mxCell id="ES-EeXoTM_ZExigbFJbH-86" value="par défaut ; stratégie pour couvrir toute la zone" style="rounded=0;whiteSpace=wrap;html=1;labelBackgroundColor=none;fontColor=#000000;strokeColor=#000000;fillColor=default;" parent="1" vertex="1">
          <mxGeometry x="320" y="430" width="120" height="60" as="geometry" />
        </mxCell>
        <mxCell id="ES-EeXoTM_ZExigbFJbH-87" style="edgeStyle=orthogonalEdgeStyle;rounded=0;orthogonalLoop=1;jettySize=auto;html=1;exitX=1;exitY=0.5;exitDx=0;exitDy=0;entryX=0;entryY=0.5;entryDx=0;entryDy=0;fontColor=#000000;" parent="1" source="ES-EeXoTM_ZExigbFJbH-88" target="ES-EeXoTM_ZExigbFJbH-92" edge="1">
          <mxGeometry relative="1" as="geometry" />
        </mxCell>
        <mxCell id="ES-EeXoTM_ZExigbFJbH-88" value="par commande de l&#39;utilisateur" style="rounded=0;whiteSpace=wrap;html=1;labelBackgroundColor=none;fontColor=#000000;strokeColor=#000000;fillColor=default;" parent="1" vertex="1">
          <mxGeometry x="320" y="510" width="120" height="60" as="geometry" />
        </mxCell>
        <mxCell id="ES-EeXoTM_ZExigbFJbH-89" style="edgeStyle=orthogonalEdgeStyle;rounded=0;orthogonalLoop=1;jettySize=auto;html=1;exitX=1;exitY=0.5;exitDx=0;exitDy=0;entryX=0;entryY=0.5;entryDx=0;entryDy=0;fontColor=#000000;" parent="1" source="ES-EeXoTM_ZExigbFJbH-90" target="ES-EeXoTM_ZExigbFJbH-91" edge="1">
          <mxGeometry relative="1" as="geometry" />
        </mxCell>
        <mxCell id="ES-EeXoTM_ZExigbFJbH-90" value="par demande des Husky" style="rounded=0;whiteSpace=wrap;html=1;labelBackgroundColor=none;fontColor=#000000;strokeColor=#000000;fillColor=default;" parent="1" vertex="1">
          <mxGeometry x="320" y="590" width="120" height="60" as="geometry" />
        </mxCell>
        <mxCell id="ES-EeXoTM_ZExigbFJbH-91" value="&lt;font color=&quot;#0000ff&quot;&gt;cf communication Husky/drones&lt;/font&gt;" style="rounded=0;whiteSpace=wrap;html=1;labelBackgroundColor=none;fontColor=#000000;strokeColor=#000000;fillColor=default;" parent="1" vertex="1">
          <mxGeometry x="530" y="590" width="110" height="60" as="geometry" />
        </mxCell>
        <mxCell id="ES-EeXoTM_ZExigbFJbH-92" value="&lt;font color=&quot;#3333ff&quot;&gt;cf. communication Drone/VAB&lt;/font&gt;" style="rounded=0;whiteSpace=wrap;html=1;labelBackgroundColor=none;fontColor=#000000;fillColor=#FFFFFF;" parent="1" vertex="1">
          <mxGeometry x="530" y="510" width="100" height="60" as="geometry" />
        </mxCell>
        <mxCell id="ES-EeXoTM_ZExigbFJbH-93" value="algorithme de déplacement qui passe par le VAB (on ne peut faire tourner aucun algo sur le drone)&lt;br&gt;(il existe de tels algorithmes déjà codés)" style="rounded=0;whiteSpace=wrap;html=1;labelBackgroundColor=none;fontColor=#0000FF;strokeColor=#000000;fillColor=default;" parent="1" vertex="1">
          <mxGeometry x="530" y="410" width="190" height="80" as="geometry" />
        </mxCell>
        <mxCell id="ES-EeXoTM_ZExigbFJbH-123" value="altitude fixé (un drone sera plus haut que l&#39;autre)" style="rounded=0;whiteSpace=wrap;html=1;" parent="1" vertex="1">
          <mxGeometry x="320" y="350" width="120" height="60" as="geometry" />
        </mxCell>
        <mxCell id="ES-EeXoTM_ZExigbFJbH-130" value="" style="edgeStyle=orthogonalEdgeStyle;rounded=0;orthogonalLoop=1;jettySize=auto;html=1;" parent="1" source="ES-EeXoTM_ZExigbFJbH-126" target="ES-EeXoTM_ZExigbFJbH-129" edge="1">
          <mxGeometry relative="1" as="geometry" />
        </mxCell>
        <mxCell id="ES-EeXoTM_ZExigbFJbH-126" value="détection et évitement des obstacles" style="rounded=0;whiteSpace=wrap;html=1;" parent="1" vertex="1">
          <mxGeometry x="320" y="680" width="120" height="60" as="geometry" />
        </mxCell>
        <mxCell id="ES-EeXoTM_ZExigbFJbH-129" value="algorithme de contournement" style="rounded=0;whiteSpace=wrap;html=1;" parent="1" vertex="1">
          <mxGeometry x="520" y="680" width="120" height="60" as="geometry" />
        </mxCell>
      </root>
    </mxGraphModel>
  </diagram>
</mxfile>
